grf
version=1
nRows=6
nColumns=37
inDegrees=no
endheader
time	ground_force_1_vx	ground_force_1_vy	ground_force_1_vz	ground_force_1_px	ground_force_1_py	ground_force_1_pz	ground_moment_1_mx	ground_moment_1_my	ground_moment_1_mz	ground_force_2_vx	ground_force_2_vy	ground_force_2_vz	ground_force_2_px	ground_force_2_py	ground_force_2_pz	ground_moment_2_mx	ground_moment_2_my	ground_moment_2_mz	ground_force_3_vx	ground_force_3_vy	ground_force_3_vz	ground_force_3_px	ground_force_3_py	ground_force_3_pz	ground_moment_3_mx	ground_moment_3_my	ground_moment_3_mz	ground_force_4_vx	ground_force_4_vy	ground_force_4_vz	ground_force_4_px	ground_force_4_py	ground_force_4_pz	ground_moment_4_mx	ground_moment_4_my	ground_moment_4_mz
      5.46000000	      0.00000000	     -0.00000000	      0.00000000	      0.00000000	      0.00000000	      0.00000000	      0.00000000	      0.00000000	      0.00000000	      0.99902022	     19.28754425	   -135.55372620	   -253.33005345	  -1078.95591181	      0.00000000	      0.00000000	      0.00000000	    720.10666847	      2.11161149	    -12.24050159	   -107.60736084	   -288.81485441	   -684.24783327	      0.00000000	      0.00000000	     -0.00000000	  -1587.22923383	      0.00000000	     -0.00000000	      0.00000000	      0.00000000	      0.00000000	      0.00000000	      0.00000000	      0.00000000	      0.00000000
      5.47000000	      0.00000000	     -0.00000000	      0.00000000	      0.00000000	      0.00000000	      0.00000000	      0.00000000	      0.00000000	      0.00000000	      8.11826801	     19.32338142	   -153.84490967	   -263.80349243	  -1079.17587593	      0.00000000	      0.00000000	      0.00000000	   1216.77522254	      4.91512116	     -9.94448037	   -123.25051880	   -296.41004322	   -686.46602765	      0.00000000	      0.00000000	     -0.00000000	  -2038.99892449	      0.00000000	     -0.00000000	      0.00000000	      0.00000000	      0.00000000	      0.00000000	      0.00000000	      0.00000000	      0.00000000
      5.48000000	      0.00000000	     -0.00000000	      0.00000000	      0.00000000	      0.00000000	      0.00000000	      0.00000000	      0.00000000	      0.00000000	     19.91024780	     19.96520996	   -189.22901917	   -277.90708774	  -1076.44980939	      0.00000000	      0.00000000	      0.00000000	   1627.12889867	     12.57948907	     -7.33070102	   -145.03817749	   -305.13825683	   -690.46976743	      0.00000000	      0.00000000	     -0.00000000	  -2764.84496652	      0.00000000	     -0.00000000	      0.00000000	      0.00000000	      0.00000000	      0.00000000	      0.00000000	      0.00000000	      0.00000000
      5.49000000	      0.00000000	     -0.00000000	      0.00000000	      0.00000000	      0.00000000	      0.00000000	      0.00000000	      0.00000000	      0.00000000	     30.27847099	     23.04869843	   -247.07881165	   -294.77225049	  -1069.59434430	      0.00000000	      0.00000000	      0.00000000	   2024.93420427	     24.67887826	     -5.97070147	   -183.02345276	   -317.84374307	   -692.88604982	      0.00000000	      0.00000000	      0.00000000	  -3171.63388280	      0.00000000	     -0.00000000	      0.00000000	      0.00000000	      0.00000000	      0.00000000	      0.00000000	      0.00000000	      0.00000000
      5.50000000	      0.00000000	     -0.00000000	      0.00000000	      0.00000000	      0.00000000	      0.00000000	      0.00000000	      0.00000000	      0.00000000	     24.94423866	     32.15465927	   -328.79760742	   -304.62567542	  -1065.99440953	      0.00000000	      0.00000000	      0.00000000	   2668.99229854	     30.23329827	    -11.26951959	   -239.30003357	   -328.39648403	   -696.96436752	      0.00000000	      0.00000000	     -0.00000000	  -3502.28916897	      0.00000000	     -0.00000000	      0.00000000	      0.00000000	      0.00000000	      0.00000000	      0.00000000	      0.00000000	      0.00000000
      5.51000000	      0.00000000	     -0.00000000	      0.00000000	      0.00000000	      0.00000000	      0.00000000	      0.00000000	      0.00000000	      0.00000000	      9.85413265	     40.78519058	   -405.85867310	   -309.51767166	  -1064.31983145	      0.00000000	      0.00000000	      0.00000000	   3078.90248402	     25.95761078	    -25.27516592	   -308.08258057	   -334.54751040	   -697.42531245	      0.00000000	      0.00000000	     -0.00000000	  -3770.84653513	      0.00000000	     -0.00000000	      0.00000000	      0.00000000	      0.00000000	      0.00000000	      0.00000000	      0.00000000	      0.00000000
